<svg xmlns="http://www.w3.org/2000/svg" xmlns:xlink="http://www.w3.org/1999/xlink" viewBox="0 0 300 300"><path d="M232.986 226.834c0 44.42-36.801 73.166-82.201 73.166-45.397 0-82.195-28.746-82.195-73.166 0-44.415 36.799-87.68 82.195-87.68 45.399-.001 82.201 43.265 82.201 87.68z" fill="#5c2938"/><path d="M108.878 170.35l42.563 98.832 41.251-100.801c0 .001-45.399-29.464-83.814 1.969z" fill="#fff"/><path d="M150.785 300c1.009 0 2.004-.03 3.002-.06l-2.346-93.274-3.628 93.274c.988.03 1.974.06 2.972.06z" fill="#3f1722"/><path d="M211.832 237.497l-5.884-12.236c-2.164-4.498-5.702-4.501-7.868 0l-3.105 6.456-.911 1.89-1.871 3.891h-.003l-3.934 8.18H215.768l-3.936-8.181z" fill="#e37c2f"/><path d="M159.489 227.883c0 19.587-3.896 32.268-8.704 32.268-4.807 0-8.703-12.681-8.703-32.268 0-19.595 3.896-38.678 8.703-38.678 4.808 0 8.704 19.083 8.704 38.678z" fill="#d31e25"/><path d="M160.625 186.548c0 7.586-4.403 12.491-9.84 12.491-5.434 0-9.839-4.905-9.839-12.491 0-7.584 4.406-14.972 9.839-14.972 5.436 0 9.84 7.388 9.84 14.972z" fill="#d31e25"/><path fill="#e8dfce" d="M151.558 182.042l-17.632 22.867-23.139-33.607 23.139-4.688z"/><path fill="#e8dfce" d="M150.457 182.042l17.632 22.867 23.139-33.607-23.139-4.688z"/><path fill="#3f1722" d="M151.008 251.323l-47.382-96.417-31.129 9.919 32.924 46.209 21.895 5.854-12.435 7.421 36.127 50.708z"/><path fill="#3f1722" d="M150.457 251.323l47.381-96.417 31.132 9.919-32.927 46.209-21.897 5.854 12.44 7.421-36.129 50.708z"/><path d="M63.932 18.497c-5.987-2.061-12.011-3.357-18.153-4.764-6.356-1.453-13.991-2.381-19.942-2.679-2.622-.13-3.178 1.123-3.574 4.165-.282 2.158.946 5.119 1.711 7.144 2.08 5.512 4.189 11.434 6.987 16.675 3.281 6.136 6.54 13.755 10.946 19.042l1.787-1.193c1.293-2.578 3.132-4.184 5.06-6.233 3.107-3.303 5.764-6.602 9.224-9.525 4.292-3.62 8.101-7.852 12.502-11.336 2.451-1.947 5.092-3.026 7.098-5.417-2.196-3.433-9.907-4.593-13.646-5.879z" fill="#a06f60"/><path d="M58.938 30.037c-4.753-.895-9.715-2.313-14.647-2.614-2.259-.135-5.689-.534-5.944 1.773-.211 1.909 5.108 10.997 6.621 13.342 1.044 1.611 2.516 4.821 4.083 5.721v-1.491c-.141.236-.333.317-.572.252 3.199-2.926 6.941-6.526 10.466-9.701 1.052-.944 4.62-3.715 4.704-5.116.131-2.171-3.231-1.887-4.711-2.166z" fill="#ffd1ba"/><path d="M236.768 18.497c5.992-2.061 12.014-3.357 18.155-4.764 6.358-1.453 13.988-2.381 19.942-2.679 2.619-.13 3.175 1.123 3.571 4.165.282 2.158-.946 5.119-1.708 7.144-2.077 5.512-4.189 11.434-6.99 16.675-3.278 6.136-6.537 13.755-10.943 19.042l-1.79-1.193c-1.29-2.578-3.129-4.184-5.057-6.233-3.107-3.303-5.767-6.602-9.227-9.525-4.292-3.62-8.099-7.852-12.5-11.336-2.454-1.947-5.092-3.026-7.098-5.417 2.195-3.433 9.906-4.593 13.645-5.879z" fill="#a06f60"/><path d="M241.762 30.037c4.753-.895 9.718-2.313 14.647-2.614 2.261-.135 5.691-.534 5.943 1.773.212 1.909-5.106 10.997-6.618 13.342-1.041 1.611-2.516 4.821-4.083 5.721v-1.491c.144.236.333.317.569.252-3.197-2.926-6.941-6.526-10.463-9.701-1.052-.944-4.62-3.715-4.707-5.116-.127-2.171 3.232-1.887 4.712-2.166z" fill="#ffd1ba"/><path d="M276.004 68.739C253.59 37.867 214.085 1.275 150.736 1.196v-.011c-.133 0-.255.006-.385.006s-.255-.006-.382-.006v.011C86.618 1.275 47.113 37.867 24.696 68.739 14.053 83.397.7 89.044.7 89.044s22.778 23.117 52.79 50.201c25.639 23.142 54.992 48.558 96.479 48.891v.011c.127 0 .255-.006.382-.006s.255.006.385.006v-.011c41.487-.333 70.837-25.75 96.476-48.891C277.222 112.162 300 89.044 300 89.044s-13.351-5.647-23.996-20.305z" fill="#ccb5a7"/><path d="M70.995 70.022s34.719-12.03 38.521 25.237c0 0-34.901 20.983-38.521-25.237z" fill="#fff"/><defs><path id="a" d="M70.995 70.022s34.719-12.03 38.521 25.237c0 0-34.901 20.983-38.521-25.237z"/></defs><clipPath id="b"><use xlink:href="#a" overflow="visible"/></clipPath><path d="M74.01 76.708c.925-9.834 9.639-17.047 19.47-16.119 9.837.925 17.046 9.636 16.125 19.473-.927 9.831-9.655 17.041-19.476 16.119-9.834-.927-17.046-9.645-16.119-19.473z" clip-path="url(#b)" fill="#4a5f71"/><path d="M90.544 64.721s-2.156 6.082-2.359 11.472c-.174 4.618 1.489 11.805 1.489 11.805s5.989-10.754.87-23.277z" clip-path="url(#b)" fill="#fff"/><path d="M165.963 134.24c0-8.554-6.863-10.691-15.327-10.691-8.462 0-15.325 2.136-15.325 10.691 0 8.551 6.863 22.908 15.325 22.908 8.465 0 15.327-14.356 15.327-22.908z" fill="#a06f60"/><path d="M146.875 121.613s-7.359-10.843-26.718-4.647c-19.365 6.198-20.91 24.394-12.394 33.689 8.519 9.294 26.411 2.823 33.304-4.647 13.94-15.1 5.808-24.395 5.808-24.395z" fill="#ffd1ba"/><path d="M125.575 119.677s-4.644 1.161-2.321 4.645c2.321 3.487 6.583.778 9.295-.385 2.708-1.163 16.266-6.974 17.423 3.487 1.161 10.455-24.397 9.682-28.269 5.42 0 0-6.502-3.839-3.094-9.68 2.709-4.65 6.966-3.487 6.966-3.487z" fill="#3f1722"/><path d="M34.972 55.757a198.023 198.023 0 0 0-10.276 12.982C14.053 83.397.7 89.044.7 89.044s14.712 14.923 36.045 34.828c-12.518-29.511-7.033-54.463-1.773-68.115z" fill="#a06f60"/><path d="M229.708 70.022s-34.719-12.03-38.52 25.237c-.001 0 34.9 20.983 38.52-25.237z" opacity=".49" fill="#442282"/><defs><path id="c" d="M229.708 70.022s-34.719-12.03-38.52 25.237c-.001 0 34.9 20.983 38.52-25.237z"/></defs><use xlink:href="#c" overflow="visible" fill="#fff"/><clipPath id="d"><use xlink:href="#c" overflow="visible"/></clipPath><path d="M226.69 76.708c-.922-9.834-9.639-17.047-19.47-16.119-9.834.925-17.047 9.636-16.122 19.473.927 9.831 9.653 17.041 19.473 16.119 9.837-.927 17.046-9.645 16.119-19.473z" clip-path="url(#d)" fill="#4a5f71"/><path d="M210.159 64.721s2.153 6.082 2.359 11.472c.174 4.618-1.486 11.805-1.486 11.805s-5.995-10.754-.873-23.277z" clip-path="url(#d)" fill="#fff"/><path d="M276.004 68.739a197.948 197.948 0 0 0-10.273-12.982c5.263 13.652 10.742 38.604-1.773 68.115C285.291 103.968 300 89.044 300 89.044s-13.351-5.647-23.996-20.305zM150.736 1.196v-.011c-.133 0-.255.006-.385.006s-.255-.006-.382-.006v.011c-29.912.038-54.496 8.215-74.487 20.086 9.761.089 56.619 4.956 65.973 89.494h17.789c9.357-84.538 56.212-89.405 65.976-89.494-19.988-11.87-44.577-20.048-74.484-20.086z" fill="#a06f60"/><path d="M153.827 121.613s7.359-10.843 26.718-4.647c19.362 6.198 20.913 24.394 12.391 33.689-8.516 9.294-26.409 2.823-33.301-4.647-13.942-15.1-5.808-24.395-5.808-24.395z" fill="#ffd1ba"/><path d="M175.125 119.677s4.645 1.161 2.324 4.645c-2.324 3.487-6.586.778-9.294-.385-2.711-1.163-16.266-6.974-17.423 3.487-1.163 10.455 24.397 9.682 28.266 5.42 0 0 6.505-3.839 3.097-9.68-2.71-4.65-6.97-3.487-6.97-3.487z" fill="#3f1722"/><path d="M169.353 113.111c0-5.469-9.877-6.597-19.18-6.597-9.3 0-19.177 1.128-19.177 6.597 0 5.463 9.877 15.439 19.177 15.439 9.302-.001 19.18-9.976 19.18-15.439zM151.677 149.315s-10.479.89-17.83 8.02c-7.353 7.131-11.366 15.154-14.484 12.48-3.123-2.676-4.238-8.47-4.238-8.47s-.667-3.343-6.236-2.673c-5.575.67-9.807 4.232-8.251 8.692 1.565 4.455 3.346 18.719 17.163 17.602 0 0 6.909-.664 11.369-9.579 4.452-8.918 8.465-20.059 23.844-24.516 0 .001 1.109-1.781-1.337-1.556zM241.274 83.871h-3.731c-.285 0-.54.106-.803.184-3.495-6.483-10.349-10.903-18.22-10.903-11.401 0-20.682 9.281-20.682 20.685s9.281 20.685 20.682 20.685c11.407 0 20.69-9.281 20.69-20.685 0-.943-.084-1.86-.209-2.768h2.272c1.765 0 3.197-1.608 3.197-3.6.001-1.987-1.43-3.598-3.196-3.598zm-22.753 26.173c-9.528 0-17.279-7.269-17.279-16.206 0-8.934 7.752-16.206 17.279-16.206 9.536 0 17.285 7.272 17.285 16.206 0 8.937-7.749 16.206-17.285 16.206z" fill="#19173e"/><g><path d="M194.986 248.204a1.215 1.215 0 0 1-1.204-1.084 1.219 1.219 0 0 1 1.079-1.329c.135-.014 13.774-1.651 28.67-18.275 20.446-22.824 17.675-139.104 17.646-140.276a1.209 1.209 0 0 1 1.177-1.239c.662.095 1.226.513 1.242 1.179.125 4.824 2.823 118.414-18.264 141.948-15.574 17.385-29.632 19.007-30.223 19.066a.625.625 0 0 1-.123.01z" fill="#4a5f71"/></g><path fill="#3f1722" d="M186.318 244.235h31.585v7.123h-31.585z"/></svg>