<svg xmlns="http://www.w3.org/2000/svg" xmlns:xlink="http://www.w3.org/1999/xlink" viewBox="0 0 300 300"><path d="M233.284 223.554c0 46.348-36.069 76.347-80.57 76.347-44.493 0-80.565-29.999-80.565-76.347s36.071-91.497 80.565-91.497c44.501 0 80.57 45.149 80.57 91.497z" fill="#a06f60"/><path d="M110.695 180.735l41.719 86.257 40.432-88.306s-44.499-30.748-82.151 2.049z" fill="#fff"/><path d="M151.582 299.88c.346.003.694.021 1.047.021.842 0 1.671-.032 2.506-.053l-2.727-68.047-.826 68.079zM183.38 260.669l30.46-5.53 1.329 7.317-30.46 5.529z" fill="#3f1722"/><path d="M143.136 228.726c0 8.523 4.289 33.345 9.583 33.345s9.586-24.822 9.586-33.345c0-8.52-4.292-25.381-9.586-25.381s-9.583 16.86-9.583 25.381z" fill="#e37b62"/><path d="M162.305 192.484c0-5.635-4.295-10.204-9.586-10.204-5.294 0-9.583 4.568-9.583 10.204s4.289 16.785 9.583 16.785c5.291 0 9.586-11.149 9.586-16.785z" fill="#e37b62"/><path fill="#e8dfce" d="M113.767 184.529l14.835 32.58 22.57-31.935z"/><path d="M153.019 274.496v-13.888l-38.341-85.925-10.848-22.582c-10.8 9.812-19.443 22.539-24.955 36.628l17.556 17.5 20.118 1.009-9.458 9.615 45.928 57.643z" fill="#3f1722"/><path fill="#e8dfce" d="M191.669 184.529l-14.838 32.58-22.571-31.935z"/><path d="M226.56 188.728c-5.512-14.088-14.157-26.814-24.955-36.627l-10.848 22.582-38.343 85.925v13.888l45.936-57.643-9.464-9.615 20.118-1.009 17.556-17.501zM139.697 282.52a4.488 4.488 0 0 1 8.975 0 4.488 4.488 0 0 1-8.975 0z" fill="#3f1722"/><path d="M251.951 108.416c-16.612-43.19-27.503-66.884-36.135-88.456-8.302-20.764-45.649-18.716-62.597-18.716-.17 0-.337.008-.505.015-.165-.007-.332-.015-.497-.015-16.953 0-54.3-2.048-62.605 18.716-8.624 21.573-19.515 45.267-36.127 88.456-9.852 25.607-.47 49.309 22.425 63.537 20.458 12.717 52.926 17.443 76.307 17.443.165 0 .332-.007.497-.011.168.004.335.011.505.011 23.381 0 55.844-4.726 76.307-17.443 22.892-14.229 32.271-37.93 22.425-63.537z" fill="#a06f60"/><ellipse transform="rotate(-26.45 119.494 156.37)" cx="119.509" cy="156.38" rx="55.234" ry="37.583" fill="#ccb5a7"/><path d="M85.947 88.497s23.631-18.206 36.164 9.516c.001-.001-21.459 25.152-36.164-9.516z" opacity=".49" fill="#442282"/><defs><path id="a" d="M85.947 88.497s23.631-18.206 36.164 9.516c.001-.001-21.459 25.152-36.164-9.516z"/></defs><use xlink:href="#a" overflow="visible" fill="#fff"/><clipPath id="b"><use xlink:href="#a" overflow="visible"/></clipPath><path d="M91.799 93.484c-1.81-7.812 3.04-15.615 10.843-17.434 7.811-1.818 15.611 3.036 17.431 10.842 1.82 7.809-3.032 15.615-10.838 17.434-7.815 1.819-15.61-3.033-17.436-10.842z" clip-path="url(#b)" fill="#19173e"/><path d="M103.737 89.042a3.765 3.765 0 0 0-4.518-2.809 3.772 3.772 0 0 0-2.812 4.52 3.763 3.763 0 1 0 7.33-1.711zM113.044 94.607a2.69 2.69 0 1 0-5.24 1.22 2.69 2.69 0 0 0 5.24-1.22z" fill="#fff"/><path d="M176.244 122.42c0-7.46-11.831-9-22.975-9-11.14 0-22.969 1.54-22.969 9 0 7.457 11.829 21.076 22.969 21.076 11.144 0 22.975-13.619 22.975-21.076z" opacity=".49" fill="#442282"/><path d="M136.473 131.781c-9.246 18.586 5.4 44.663 32.71 58.249 27.317 13.587 56.952 9.537 66.192-9.05 9.246-18.584-5.403-44.662-32.715-58.249-27.312-13.585-56.944-9.533-66.187 9.05z" fill="#ccb5a7"/><path d="M204.803 139.043s-2.767 9.882-17.391 7.906c-14.63-1.977-16.995-6.325-19.767.791-2.764 7.114 16.416 8.446 26.485 5.929 14.228-3.557 10.673-14.626 10.673-14.626z" fill="#19173e"/><path d="M173.756 118.488s-20.16-2.37-3.162-52.179c11.088-32.488 29.571-46.807 41.086-52.839C198.881-.337 168.144 1.243 153.219 1.243c-.17 0-.337.008-.505.015-.165-.007-.332-.015-.497-.015-14.904 0-45.575-1.577-58.408 12.159 11.507 5.998 30.084 20.307 41.211 52.907 16.995 49.809-3.165 52.179-3.165 52.179H173.756z" fill="#ccb5a7"/><g><path d="M219.488 88.497s-23.636-18.206-36.172 9.516c0-.001 21.465 25.152 36.172-9.516z" fill="#fff"/><defs><path id="c" d="M219.488 88.497s-23.636-18.206-36.172 9.516c0-.001 21.465 25.152 36.172-9.516z"/></defs><clipPath id="d"><use xlink:href="#c" overflow="visible"/></clipPath><path d="M213.631 93.484c1.815-7.812-3.035-15.615-10.843-17.434-7.805-1.818-15.611 3.036-17.434 10.842-1.815 7.809 3.038 15.615 10.845 17.434 7.809 1.819 15.611-3.033 17.432-10.842z" clip-path="url(#d)" fill="#19173e"/><path d="M201.693 89.042a3.768 3.768 0 0 1 4.523-2.809 3.774 3.774 0 0 1 2.812 4.52 3.77 3.77 0 0 1-4.526 2.812 3.768 3.768 0 0 1-2.809-4.523zM192.391 94.607a2.686 2.686 0 0 1 3.226-2.009 2.693 2.693 0 0 1 2.014 3.229 2.69 2.69 0 1 1-5.24-1.22z" fill="#fff"/></g><path d="M129.192 122.42c0-7.46 11.831-9 22.972-9 11.14 0 22.972 1.54 22.972 9 0 7.457-11.832 21.076-22.972 21.076-11.141 0-22.972-13.619-22.972-21.076z" fill="#3f1722"/><path d="M149.942 178.725s-21.795 1.852-37.092 16.69c-15.3 14.836-23.647 31.53-30.137 25.966-6.495-5.565-8.81-17.618-8.81-17.618s-1.39-6.955-12.982-5.565c-11.59 1.393-20.397 8.809-17.157 18.082 3.247 9.274 6.96 38.951 35.702 36.63 0 0 14.375-1.391 23.647-19.939 9.27-18.546 17.62-41.729 49.609-51.002 0-.001 2.32-3.708-2.78-3.244zM235.878 112.858c-.252-2.506-2.355-4.487-4.922-4.487H184.7c-1.175 0-2.246.432-3.099 1.12-6.726-6.716-17.139-11.063-28.896-11.063-11.749 0-22.156 4.344-28.888 11.053-.85-.682-1.916-1.109-3.085-1.109H74.474c-2.562 0-4.669 1.981-4.916 4.487h-7.521v5.34h7.476v6.572a4.976 4.976 0 0 0 4.962 4.963h46.258c2.732 0 4.967-2.232 4.967-4.963V114.31c5.684-6.708 15.648-11.175 27.006-11.175 11.375 0 21.348 4.479 27.03 11.199v10.438a4.976 4.976 0 0 0 4.964 4.963h46.255c2.729 0 4.967-2.232 4.967-4.963V118.2h7.476v-5.34h-7.52zM120.732 124.77H74.474v-11.435h46.258v11.435zm110.224 0H184.7v-11.435h46.255v11.435zM100.628 139.043s2.767 9.882 17.397 7.906c14.625-1.977 16.995-6.325 19.762.791 2.769 7.114-16.416 8.446-26.485 5.929-14.23-3.557-10.674-14.626-10.674-14.626z" fill="#19173e"/><path d="M96.671 16.64s.829-12.044-10.795-4.569c-11.63 7.475-96.348 44.435-70.599 99.669 25.746 55.233 81.394-95.1 81.394-95.1zM208.757 16.64s-.829-12.044 10.798-4.569c11.629 7.475 96.348 44.435 70.601 99.669-25.749 55.233-81.399-95.1-81.399-95.1z" fill="#5c2938"/></svg>