<svg xmlns="http://www.w3.org/2000/svg" xmlns:xlink="http://www.w3.org/1999/xlink" viewBox="0 0 300 300"><path d="M221.704 236.022c0 39.188-32.469 64.553-72.523 64.553-40.052 0-72.519-25.364-72.519-64.553 0-39.186 32.467-77.361 72.519-77.361 40.054.001 72.523 38.175 72.523 77.361z" fill="#3f1722"/><path d="M148.238 300.559c.313.002.624.017.943.017.758 0 1.505-.026 2.256-.043l-2.452-57.537-.747 57.563z" fill="#5c2938"/><path d="M111.434 186.186l38.205 93.833 35.741-95.567c.001 0-40.054-25.996-73.946 1.734z" fill="#e8dfce"/><path d="M199.122 252.892l-6.796-9.865c-2.5-3.629-5.586-3.148-6.858 1.072l-1.83 6.05-.536 1.773-1.105 3.643-2.313 7.667 7.916-1.234 8.155-1.273 7.913-1.239-4.546-6.594z" fill="#fff"/><path fill="#5c2938" d="M177.8 262.22l27.533-4.3.97 6.212-27.533 4.3zM149.766 270.391s-16.274-28.476-25.314-60.115c-7.985-27.957-9.04-46.104-9.04-46.104L84.223 188.13s4.878 11.736 15.731 29.713l21.336 10.514-7.76 10.241c15.669 21.735 36.237 42.645 36.237 42.645v-10.852z"/><path d="M148.735 270.391s16.272-28.476 25.312-60.115c7.99-27.957 9.04-46.104 9.04-46.104l31.192 23.958s-4.88 11.736-15.731 29.713l-21.333 10.514 7.758 10.241c-15.669 21.735-36.237 42.645-36.237 42.645v-10.852z" fill="#5c2938"/><path d="M95.646 50.28S71.064 21.732 31.014 15.784c0 0-7.928-1.983-6.739 11.499 1.187 13.482 6.344 42.031 26.565 63.047 0-.001 44.011-24.585 44.806-40.05z" fill="#e37c2f"/><path d="M52.823 83.589S39.341 64.952 35.375 40.764c0 0-1.983-7.534 4.758-4.362 6.743 3.172 26.965 12.687 39.655 24.187l-26.965 23z" fill="#ffae5e"/><path d="M252.632 99.497c0-39.189-46.317-64.552-103.452-64.552-57.132 0-103.45 25.363-103.45 64.552 0 39.19 46.317 108.206 103.45 108.206 57.135.001 103.452-69.016 103.452-108.206z" opacity=".49" fill="#442282"/><path d="M203.038 50.28s24.582-28.548 64.634-34.496c0 0 7.93-1.983 6.739 11.499-1.189 13.482-6.346 42.031-26.567 63.047-.001-.001-44.012-24.585-44.806-40.05z" fill="#e37c2f"/><path d="M245.862 83.589s13.482-18.637 17.446-42.825c0 0 1.988-7.534-4.756-4.362-6.741 3.172-26.967 12.687-39.655 24.187l26.965 23z" fill="#ffae5e"/><path d="M46.051 99.497c0-39.189 46.317-64.552 103.454-64.552 57.13 0 103.447 25.363 103.447 64.552 0 39.19-46.317 108.206-103.447 108.206-57.137.001-103.454-69.016-103.454-108.206z" fill="#d16a01"/><path d="M149.505 34.946c-21.843 0-42.093 3.717-58.788 10.486 2.39 2.548 49.867 54.315 42.308 140.613H165.657c-7.708-88.049 41.87-140.154 42.401-140.71-16.651-6.708-36.815-10.389-58.553-10.389z" fill="#e37c2f"/><path d="M214.108 53.713c-1.258 9.601-25.881 14.242-52.637 9.568-26.763-4.673-46.506-12.854-44.844-27.482 1.103-9.625 24.204-13.945 50.965-9.267 26.76 4.672 48.299 13.602 46.516 27.181z" fill="#5c2938"/><path d="M129.088 33.838c-2.543 7.929 15.922 13.717 35.419 17.121 18.64 3.256 37.605 1.249 38.399-5.852 0 0-2.548-26.002-12.664-39.146 0 0-1.789-3.269-8.002-1.545-6.208 1.721-11.916 3.088-18.365-1.435-6.447-4.524-9.05-2.32-14.398 2.951-5.356 5.268-19.09 23.848-20.389 27.906z" fill="#5c2938"/><path d="M166.069 37.786c-20.712-3.033-28.362-9.439-31.175-13.45-2.978 4.254-5.308 7.947-5.806 9.502-2.543 7.929 15.922 13.717 35.419 17.121 18.64 3.256 37.605 1.249 38.399-5.852 0 0-.467-4.677-1.761-11.042-4.612 3.575-14.245 6.774-35.076 3.721z" fill="#fff"/><path d="M142.448 207.312s6.344-8.327-10.705-25.376c-17.051-17.052-42.428-28.95-70.186-34.103 0 0-15.071-1.584-5.552 12.294 9.131 13.312 29.773 32.433 57.893 44.808 19.826 8.725 28.55 2.377 28.55 2.377z" fill="#ffae5e"/><path d="M80.015 125.112s20.601-16.063 31.723 8.143c0-.001-18.662 22.139-31.723-8.143z" opacity=".49" fill="#442282"/><defs><path id="a" d="M80.015 125.112s20.601-16.063 31.723 8.143c0-.001-18.662 22.139-31.723-8.143z"/></defs><use xlink:href="#a" overflow="visible" fill="#fff"/><clipPath id="b"><use xlink:href="#a" overflow="visible"/></clipPath><path d="M85.17 129.447c-1.631-6.827 2.576-13.688 9.399-15.323 6.83-1.635 13.688 2.577 15.322 9.403 1.639 6.827-2.576 13.686-9.401 15.324-6.825 1.629-13.686-2.57-15.32-9.404z" clip-path="url(#b)" fill="#19173e"/><path d="M95.598 125.494a3.288 3.288 0 0 0-3.969-2.433 3.295 3.295 0 1 0 1.533 6.411 3.296 3.296 0 0 0 2.436-3.978zM103.774 130.317a2.357 2.357 0 0 0-2.84-1.741 2.352 2.352 0 0 0-1.739 2.84 2.345 2.345 0 0 0 2.835 1.739 2.35 2.35 0 0 0 1.744-2.838z" fill="#fff"/><path d="M156.237 207.312s-6.344-8.327 10.705-25.376c17.052-17.052 42.428-28.95 70.187-34.103 0 0 15.068-1.584 5.552 12.294-9.129 13.312-29.775 32.433-57.893 44.808-19.829 8.725-28.551 2.377-28.551 2.377z" fill="#ffae5e"/><g><path d="M218.668 125.112s-20.601-16.063-31.72 8.143c0-.001 18.659 22.139 31.72-8.143z" opacity=".49" fill="#442282"/><defs><path id="c" d="M218.668 125.112s-20.601-16.063-31.72 8.143c0-.001 18.659 22.139 31.72-8.143z"/></defs><use xlink:href="#c" overflow="visible" fill="#fff"/><clipPath id="d"><use xlink:href="#c" overflow="visible"/></clipPath><path d="M213.513 129.447c1.634-6.827-2.576-13.688-9.399-15.323-6.827-1.635-13.688 2.577-15.322 9.403-1.636 6.827 2.576 13.686 9.403 15.324 6.826 1.629 13.684-2.57 15.318-9.404z" clip-path="url(#d)" fill="#19173e"/><path d="M203.085 125.494a3.288 3.288 0 0 1 3.969-2.433 3.294 3.294 0 0 1 2.44 3.973 3.303 3.303 0 0 1-3.973 2.438 3.298 3.298 0 0 1-2.436-3.978zM194.911 130.317a2.354 2.354 0 1 1 4.578 1.099 2.348 2.348 0 0 1-2.837 1.739 2.35 2.35 0 0 1-1.741-2.838z" fill="#fff"/></g><path d="M131.059 195.757c0-6.988 8.258-11.506 18.444-11.506 10.188 0 18.441 4.519 18.441 11.506 0 6.985-8.253 19.29-18.441 19.29-10.186.001-18.444-12.305-18.444-19.29z" fill="#3f1722"/><g fill="#4a5f71"><path d="M154.888 224.21a5.87 5.87 0 1 0-11.74 0 5.87 5.87 0 0 0 11.74 0z"/><path d="M152.108 221.877s16.336-6.662 23.245-9.15c6.911-2.488 9.169 1.356 9.301 5.536.134 4.179-1.466 16.269-5.05 21.577-3.591 5.308-10.112.847-12.49-.452-5.181-2.825-15.673-13.217-15.673-13.217l.667-4.294zM145.613 221.877s-16.336-6.662-23.245-9.15c-6.911-2.488-9.169 1.356-9.301 5.536-.134 4.179 1.466 16.269 5.047 21.577 3.593 5.308 10.114.847 12.49-.452 5.184-2.825 15.676-13.217 15.676-13.217l-.667-4.294z"/></g></svg>