<svg xmlns="http://www.w3.org/2000/svg" xmlns:xlink="http://www.w3.org/1999/xlink" viewBox="0 0 300 300"><path d="M92.2 53.74s1.178-25.337-19.152-30.641c-20.33-5.305-39.48 8.838-48.614 33.587-9.134 24.749-3.535 50.971 10.901 56.569 14.438 5.599 25.339 5.599 25.339 5.599L92.2 53.74z" fill="#c2cbd4"/><path d="M83.654 59.043s-.885-16.499-12.375-22.097c-11.49-5.598-28.285 1.473-34.471 21.213-6.187 19.741-16.204 54.507 20.623 52.149l26.223-51.265z" fill="#606d7e"/><path d="M216.731 53.74s-1.178-25.337 19.15-30.641c20.33-5.305 39.48 8.838 48.614 33.587 9.133 24.749 3.535 50.971-10.902 56.569-14.436 5.599-25.336 5.599-25.336 5.599L216.731 53.74z" fill="#c2cbd4"/><path d="M225.276 59.043s.882-16.499 12.373-22.097c11.49-5.598 28.285 1.473 34.471 21.213 6.188 19.741 16.205 54.507-20.624 52.149l-26.22-51.265z" fill="#606d7e"/><path d="M234.533 226.718c0 43.266-35.847 71.268-80.068 71.268-44.22 0-80.067-28.002-80.067-71.268 0-43.265 35.847-85.41 80.067-85.41 44.22.001 80.068 42.146 80.068 85.41z" fill="#5c2938"/><path fill="#3f1722" d="M194.063 231.239l23.744-3.323.75 5.357-23.744 3.324z"/><path d="M172.304 186.001c-4.524 1.462-10.605 2.826-15.276 2.442l-5.94 1.697c-2.521.925-4.25 4.685-5.516 6.884-2.257 3.913-4.86 7.691-6.801 11.774-4.33 9.106-7.701 18.631-7.626 28.769.096 12.848 3.692 27.675 12.389 37.369 6.432-2.488 13.98-6.982 21.407-5.845-8.722-11.655-2.227-34.101 2.789-46.28 3.774-9.165 8.832-17.729 14.332-25.871 1.842-2.726 4.441-5.207 5.845-8.167 1.254-2.645 1.47-5.654 2.175-8.305-5.559.143-12.278 3.758-17.778 5.533z" fill="#d16a01"/><path d="M225.683 157.043c-2.772-8.911-12.993-10.743-21.155-10.605-15.623.262-31.045 4.17-46.248 7.74-12.084 2.838-24.179 3.531-36.35 1.686-10.696-1.62-19.446-7.946-29.819-10.276l-5.94 3.394c-9.611 10.988-8.87 26.009 1.358 36.893 10.254 10.912 25.699 14.748 39.801 15.627 14.109.878 28.948-.276 42.335-2.547 12.216-2.072 27.282-4.746 38.281-10.937 11.158-6.282 22.065-17.055 17.737-30.975z" fill="#e37c2f"/><path d="M194.284 196.078c-2.079-6.217-6.126-11.53-10.514-16.123-4.698-4.916-10.455-10.232-16.557-13.258-6.335-3.144-11.071-4.555-17.822-2.879-5.228 1.299-12.162 3.024-16.549 5.954l-1.272 1.273c11.182 7.992 19.782 16.986 23.749 30.549 1.863 6.369 2.992 13.122 2.558 19.941-.375 5.894-3.432 10.209-7.042 14.859 11.296 4.89 25.138 8.187 35.792-.96 10.268-8.817 11.694-27.284 7.657-39.356z" fill="#ffae5e"/><path d="M236.963 67.491c-8.808-17.615-49.107-32.999-81.714-35.781v-.05c-.254.003-.525.019-.784.025-.259-.006-.531-.022-.785-.025v.05c-29.464 1.211-72.906 18.167-81.714 35.781-14.065 28.126-20.818 41.26-20.818 60.495 0 27.107 27.4 35.737 57.354 45.571 15.369 5.046 30.384 11.794 45.178 12.351v.054c.262-.002.523-.022.785-.028.261.005.524.025.784.028v-.054c14.795-.557 29.81-7.305 45.18-12.351 29.952-9.834 57.354-18.464 57.354-45.571-.001-19.235-6.757-32.369-20.82-60.495z" fill="#c2cbd4"/><path d="M155.249 31.709v-.05c-.254.003-.525.019-.784.025-.259-.006-.531-.022-.785-.025v.05c-18.885.776-43.501 8.025-61.07 17.765 14.14.74 56.615 7.636 55.962 63.978h11.785c-.656-56.433 41.964-63.26 56.034-63.981-16.86-9.207-40.534-16.004-61.142-17.762z" fill="#606d7e"/><path d="M100.264 87.403s22.863-13.094 30.505 12.657c0 0-21.795 19.437-30.505-12.657z" opacity=".49" fill="#442282"/><defs><path id="a" d="M100.264 87.403s22.863-13.094 30.505 12.657c0 0-21.795 19.437-30.505-12.657z"/></defs><use xlink:href="#a" overflow="visible" fill="#fff"/><clipPath id="b"><use xlink:href="#a" overflow="visible"/></clipPath><path d="M104.788 92.464c-.656-7.048 4.525-13.295 11.575-13.951 7.05-.655 13.297 4.527 13.954 11.574.656 7.053-4.528 13.298-11.577 13.953-7.049.657-13.294-4.524-13.952-11.576z" clip-path="url(#b)" fill="#19173e"/><path d="M115.768 90.012a3.33 3.33 0 0 0-3.618-3.002 3.325 3.325 0 0 0 .616 6.62 3.324 3.324 0 0 0 3.002-3.618z" fill="#fff"/><circle cx="120.873" cy="96.213" r="2.373" fill="#fff"/><path d="M114.512 156.928s-3.216-1.974-7.021-1.17c-3.804.804-9.511 3.877-7.975 14.192 1.537 10.313 13.389 15.215 23.702 15.508 10.315.292 20.701-3.659 28.091-13.608 0 0 4.974-7.021.585-13.093-4.388-6.072-11.411-5.048-15.8-2.34-4.391 2.706-5.998 12.653-13.314 14.921-7.315 2.27-13.499-1.145-14.996-6.216-1.318-4.463 1.608-8.56 6.728-8.194z" fill="#3f1722"/><path d="M208.665 87.403s-22.861-13.094-30.505 12.657c0 0 21.795 19.437 30.505-12.657z" opacity=".49" fill="#442282"/><g><defs><path id="c" d="M208.665 87.403s-22.861-13.094-30.505 12.657c0 0 21.795 19.437 30.505-12.657z"/></defs><use xlink:href="#c" overflow="visible" fill="#fff"/><clipPath id="d"><use xlink:href="#c" overflow="visible"/></clipPath><path d="M204.141 92.464c.656-7.048-4.527-13.295-11.575-13.951-7.049-.655-13.298 4.527-13.953 11.574-.656 7.053 4.528 13.298 11.577 13.953 7.048.657 13.294-4.524 13.951-11.576z" clip-path="url(#d)" fill="#19173e"/></g><circle cx="196.473" cy="90.321" r="3.324" fill="#fff"/><circle cx="188.057" cy="96.213" r="2.373" fill="#fff"/><path d="M194.416 156.928s3.218-1.974 7.023-1.17c3.804.804 9.512 3.877 7.975 14.192-1.536 10.313-13.388 15.215-23.702 15.508-10.313.292-20.701-3.659-28.089-13.608 0 0-4.974-7.021-.586-13.093 4.39-6.072 11.412-5.048 15.8-2.34 4.39 2.706 5.999 12.653 13.314 14.921 7.316 2.27 13.5-1.145 14.996-6.216 1.317-4.463-1.61-8.56-6.731-8.194z" fill="#3f1722"/><path d="M217.433 112.381h-3.371c-.176 0-.342.024-.511.051-1.824-10.836-11.226-19.099-22.579-19.099-5.795 0-11.07 2.166-15.107 5.71h-42.801c-4.036-3.544-9.313-5.71-15.106-5.71-11.354 0-20.755 8.263-22.579 19.099a3.109 3.109 0 0 0-.514-.051h-3.369a3.201 3.201 0 1 0 0 6.403h3.369c.106 0 .206-.02.31-.031 1.245 11.485 10.967 20.426 22.782 20.426 12.66 0 22.923-10.263 22.923-22.923 0-4.503-1.317-8.689-3.559-12.232h34.285a22.776 22.776 0 0 0-3.56 12.232c0 12.66 10.263 22.923 22.925 22.923 11.815 0 21.537-8.942 22.781-20.426.103.011.203.031.309.031h3.371a3.2 3.2 0 0 0 3.202-3.202 3.2 3.2 0 0 0-3.201-3.201zm-99.475 22.584c-10.332 0-18.708-8.376-18.708-18.708s8.376-18.71 18.708-18.71c10.332 0 18.708 8.378 18.708 18.71s-8.376 18.708-18.708 18.708zm73.014 0c-10.335 0-18.711-8.376-18.711-18.708s8.376-18.71 18.711-18.71c10.332 0 18.708 8.378 18.708 18.71s-8.376 18.708-18.708 18.708z" fill="#e37c2f"/><path d="M132.962 135.638c0-16.272 10.138-26.803 22.647-26.803 12.508 0 22.646 10.531 22.646 26.803s-10.138 32.122-22.646 32.122c-12.509.001-22.647-15.85-22.647-32.122z" fill="#19173e"/><g><path d="M198.967 40.168c.363 8.544-20.351 16.323-44.344 16.323-23.994 0-42.417-4.113-43.188-17.096-.507-8.539 18.937-15.808 42.931-15.808 23.992.001 44.086 4.499 44.601 16.581z" fill="#5c2938"/><path d="M121.975 35.797c-1.006 7.286 15.937 9.513 33.419 9.513 16.711 0 32.905-4.628 32.52-10.927 0 0-6.169-22.237-16.968-32.134 0 0-2.055-2.57-7.197-.128-5.142 2.442-9.898 4.498-16.197 1.542-6.296-2.955-8.226-.643-12.08 4.755-3.857 5.399-12.983 23.652-13.497 27.379z" fill="#5c2938"/><path d="M154.751 33.613c-18.481.508-26.111-3.902-29.168-6.965-1.945 4.154-3.411 7.72-3.608 9.149-1.006 7.286 15.937 9.513 33.419 9.513 16.711 0 32.905-4.628 32.52-10.927 0 0-1.117-3.997-3.209-9.339-3.474 3.813-11.366 8.058-29.954 8.569z" fill="#3f1722"/></g></svg>