<svg xmlns="http://www.w3.org/2000/svg" xmlns:xlink="http://www.w3.org/1999/xlink" viewBox="0 0 300 300"><path d="M222.28 235.581c0 38.586-31.969 63.559-71.406 63.559-39.436 0-71.405-24.974-71.405-63.559 0-38.583 31.969-76.17 71.405-76.17 39.437 0 71.406 37.586 71.406 76.17z" fill="#3f1722"/><path d="M93.451 222.588l57.994 59.536L208.3 220.88c-.001.001-46.456.248-114.849 1.708z" fill="#5c2938"/><path d="M149.299 298.965c.311.002.618.016.93.016.744 0 1.482-.026 2.222-.045l-2.414-59.381-.738 59.41zM176.437 259.912l27.208-3.543.8 6.138-27.21 3.543z" fill="#5c2938"/><path d="M151.025.963V.952l-.047-.001c-.034.001-.068.004-.103.004-.035 0-.068-.002-.102-.004l-.047.001v.011C74.917 3.446 35.779 45.535 35.779 114.229c0 25.305 2.546 50.663 14.35 72.346 16.225 29.805 46.691 46.923 67.964 58.858 19.313 10.837 30.903 17.439 32.633 18.426v.108c.016.014.047.035.047.035l.102-.061c.049.031.103.061.103.061s.031-.021.047-.035v-.108c1.73-.987 13.321-7.589 32.632-18.426 21.274-11.935 51.74-29.053 67.965-58.858 11.804-21.684 14.349-47.041 14.349-72.346 0-68.694-39.138-110.783-114.946-113.266z" fill="#e37c2f"/><path d="M104.492 47.294s3.714-3.714-1.459-10.216c-5.175-6.501-18.971-14.197-26.536-4.512-7.563 9.685 5.045 19.144 19.372 17.779 5.571-.53 8.623-3.051 8.623-3.051zM197.258 49.132s-3.715-3.716 1.459-10.217c5.175-6.501 18.971-14.196 26.536-4.51 7.563 9.684-5.045 19.143-19.37 17.778-5.573-.531-8.625-3.051-8.625-3.051z" fill="#d16a01"/><path d="M204.457 45.55s-1.392-1.392.548-3.829c1.938-2.437 7.108-5.32 9.943-1.691 2.835 3.63-1.89 7.173-7.259 6.663-2.087-.198-3.232-1.143-3.232-1.143zM95.433 43.712s1.394-1.392-.545-3.829c-1.938-2.436-7.11-5.319-9.945-1.691-2.833 3.629 1.891 7.173 7.261 6.662 2.087-.196 3.229-1.142 3.229-1.142z" fill="#ffae5e"/><path d="M151.376 25.955v-.005c-.134 0-.266-.005-.4-.005h-.2c-.134 0-.267.005-.402.005v.005c-33.77.173-63.528 14.767-60.993 53.039 2.788 42.082 17.854 48.041 25.91 75.016 7.691 25.753 18.611 41.961 35.083 42.354v.005c.134.002.267.031.402.031.033 0 .066-.007.1-.007s.067.007.1.007c.134 0 .266-.028.4-.031v-.005c16.472-.393 27.392-16.6 35.084-42.354 8.057-26.975 23.122-32.934 25.91-75.016 2.536-38.272-27.223-52.866-60.994-53.039z" fill="#ffae5e"/><g fill="#d16a01"><ellipse cx="176.128" cy="152.422" rx="25.61" ry="20.449"/><ellipse cx="125.623" cy="152.422" rx="25.61" ry="20.449"/></g><g fill="#5c2938"><path d="M138.221 139.426s5.351 9.174-12.614 13.76c-17.967 4.588-34.401 3.632-43.959-1.91-9.556-5.542-13.377-20.261-3.631-26.95 9.746-6.688 15.671 6.692 8.791 8.794 0 0 .382-3.633-2.867-2.869-3.249.767-4.397 4.014-2.485 8.601 1.912 4.588 13.847 8.077 23.701 6.501 19.114-3.061 27.138-16.441 33.064-5.927zM163.528 139.426s-5.351 9.174 12.614 13.76c17.965 4.588 34.401 3.632 43.959-1.91 9.556-5.542 13.376-20.261 3.631-26.95-9.746-6.688-15.671 6.692-8.791 8.794 0 0-.382-3.633 2.867-2.869 3.248.767 4.396 4.014 2.485 8.601-1.913 4.588-13.848 8.077-23.701 6.501-19.112-3.061-27.138-16.441-33.064-5.927z"/></g><path d="M196.724 39.635l1.092-.048-.789-1.073c-11.415-9.204-28.016-14.938-45.587-15.026h-1.002c-18.112.092-39.424 5.522-46.502 16.26 5.077.835 34.741 7.022 37.319 37.959 2.821 33.842-6.11 53.583-6.11 53.583.435 12.413 12.966 5.259 14.808 4.138 1.841 1.121 14.371 8.274 14.807-4.138 0 0-8.93-19.741-6.11-53.583 2.821-33.842 38.074-38.072 38.074-38.072z" fill="#d16a01"/><path d="M169.757 136.096c0-6.132-9.725-7.397-18.882-7.397-9.158 0-18.882 1.265-18.882 7.397 0 6.13 9.724 17.325 18.882 17.325 9.157 0 18.882-11.195 18.882-17.325z" fill="#3f1722"/><path d="M200.863 102.289c-.147-1.504-1.411-2.693-2.951-2.693h-27.766c-.024 0-.045.006-.068.007-.711-.193-10.032-2.672-18.925-2.672-9.167 0-18.837 2.691-18.837 2.691l.015.074a2.944 2.944 0 0 0-.726-.1h-27.766c-1.54 0-2.804 1.189-2.95 2.693H96.37v3.206h4.488v3.945c0 1.639 1.34 2.98 2.98 2.98h27.766c1.577 0 2.864-1.244 2.962-2.796.369-1.701 2.815-9.497 16.755-9.497 11.92 0 15.094 6.67 15.846 9.021v.292c0 1.639 1.34 2.98 2.98 2.98h27.766a2.989 2.989 0 0 0 2.981-2.98v-3.945h4.488v-3.206h-4.519zm-69.259 7.151h-27.766v-6.865h27.766v6.865zm66.308 0h-27.766v-6.865h27.766v6.865z" fill="#fff"/><g><path d="M108.033 76.839s18.893-5.137 19.567 14.819c0 0-19.316 9.896-19.567-14.819z" opacity=".49" fill="#442282"/><defs><path id="a" d="M108.033 76.839s18.893-5.137 19.567 14.819c0 0-19.316 9.896-19.567-14.819z"/></defs><use xlink:href="#a" overflow="visible" fill="#fff"/><clipPath id="b"><use xlink:href="#a" overflow="visible"/></clipPath><path d="M110.336 81.328c.851-5.194 5.748-8.716 10.94-7.868 5.195.852 8.716 5.748 7.867 10.941-.848 5.195-5.747 8.716-10.938 7.868-5.195-.85-8.717-5.746-7.869-10.941z" clip-path="url(#b)" fill="#3f1722"/><path d="M118.692 81.619a2.471 2.471 0 1 0-4.878-.793 2.471 2.471 0 0 0 4.878.793z" fill="#fff"/><circle cx="121.204" cy="87.038" r="1.765" fill="#fff"/><g><path d="M193.717 76.839s-18.893-5.137-19.567 14.819c0 0 19.316 9.896 19.567-14.819z" fill="#fff"/><defs><path id="c" d="M193.717 76.839s-18.893-5.137-19.567 14.819c0 0 19.316 9.896 19.567-14.819z"/></defs><clipPath id="d"><use xlink:href="#c" overflow="visible"/></clipPath><path d="M191.413 81.328c-.853-5.194-5.748-8.716-10.941-7.868-5.194.852-8.715 5.748-7.866 10.941.847 5.195 5.747 8.716 10.938 7.868a9.53 9.53 0 0 0 7.869-10.941z" clip-path="url(#d)" fill="#3f1722"/><path d="M183.059 81.619a2.47 2.47 0 1 1 4.876-.795 2.47 2.47 0 0 1-4.876.795z" fill="#fff"/><circle cx="180.546" cy="87.038" r="1.765" fill="#fff"/></g></g></svg>