<svg xmlns="http://www.w3.org/2000/svg" xmlns:xlink="http://www.w3.org/1999/xlink" viewBox="0 0 300 300"><path d="M229.364 230.358c0 42.102-34.883 69.351-77.914 69.351-43.03 0-77.912-27.249-77.912-69.351 0-42.1 34.883-83.111 77.912-83.111 43.031 0 77.914 41.01 77.914 83.111z" fill="#3f1722"/><path d="M110.901 176.814l40.341 64.961 39.1-66.821c.001 0-43.03-27.931-79.441 1.86z" fill="#e8dfce"/><path fill="#5c2938" d="M151.834 238.595l-37.081-67.278-8.793-21.79-25.23 18.732 28.834 33.637h13.215l-7.23 6.983 36.285 42.331z"/><path fill="#5c2938" d="M151.069 238.595l37.08-67.278 8.792-21.79 25.23 18.732-28.833 33.637H180.12l7.231 6.983-36.282 42.331z"/><path d="M150.435 299.689c.341.002.675.019 1.015.019.812 0 1.616-.029 2.425-.048l-2.634-61.811-.806 61.84z" fill="#5c2938"/><path d="M157.583 193.87a6.309 6.309 0 0 0-12.616 0 6.309 6.309 0 0 0 12.616 0z" fill="#e37c2f"/><path d="M148.415 191.366s-14.926-7.159-21.239-9.83c-6.312-2.671-8.376 1.456-8.498 5.946-.121 4.491 1.336 17.48 4.613 23.183 3.277 5.704 9.236.907 11.409-.486 4.733-3.034 14.32-14.201 14.32-14.201l-.605-4.612zM154.486 191.366s14.928-7.159 21.24-9.83c6.312-2.671 8.376 1.456 8.496 5.946.121 4.491-1.336 17.48-4.613 23.183-3.277 5.704-9.237.907-11.408-.486-4.734-3.034-14.323-14.201-14.323-14.201l.608-4.612zM204.114 243.331l-.001-.002-5.577-11.599c-2.052-4.264-5.407-4.265-7.461 0l-2.941 6.119-.862 1.793-1.775 3.687v.002l-3.729 7.755H207.845l-3.731-7.755z" fill="#e37c2f"/><path fill="#5c2938" d="M179.928 249.715h29.938v6.755h-29.938z"/><path d="M94.488 29.17S60.696 27.249 51.863 1.329c0 0-12.866 5.377-1.153 23.041 0 0-8.45 1.151-11.329-3.072 0 0-3.071 8.832 6.528 20.16 0 0-4.224 3.074-7.296-.958 0 0-2.303 10.943 8.64 15.935 0 0-8.448 2.303-2.687 8.447 5.759 6.146 22.08 19.586 36.097 17.089 14.017-2.496 20.161-33.793 13.825-52.801zM208.414 29.17s33.793-1.921 42.626-27.841c0 0 12.864 5.377 1.153 23.041 0 0 8.448 1.151 11.327-3.072 0 0 3.071 8.832-6.528 20.16 0 0 4.224 3.074 7.296-.958 0 0 2.303 10.943-8.642 15.935 0 0 8.449 2.303 2.69 8.447-5.759 6.146-22.081 19.586-36.097 17.089-14.018-2.496-20.162-33.793-13.825-52.801z" fill="#3f1722"/><path d="M236.861 110.633c-4.245-22.034-4.422-59.43-14.648-73.528-12.301-16.955-48.349-13.266-69.381-13.266l-.835-.003v-.004l-.546.001-.547-.001v.004c-.278 0-.562.003-.833.003-21.033 0-57.08-3.689-69.381 13.266-10.228 14.098-10.404 51.494-14.65 73.528-14.589 75.698 42.441 72.184 85.412 72.153 42.969.031 99.999 3.545 85.409-72.153z" fill="#a06f60"/><path d="M135.526 122.866c-11.647 16.198-35.92 18.665-54.216 5.51s-27.065-50.194-15.419-66.39c11.647-16.198 39.302-5.423 57.597 7.733 18.297 13.154 23.684 36.951 12.038 53.147z" fill="#3f1722"/><path d="M77.697 87.012s24.915-11.349 30.342 16.033c-.001 0-24.424 18.008-30.342-16.033z" opacity=".49" fill="#442282"/><defs><path id="a" d="M77.697 87.012s24.915-11.349 30.342 16.033c-.001 0-24.424 18.008-30.342-16.033z"/></defs><use xlink:href="#a" overflow="visible" fill="#fff"/><clipPath id="b"><use xlink:href="#a" overflow="visible"/></clipPath><circle cx="95.21" cy="92.684" r="13.32" clip-path="url(#b)" fill="#19173e"/><circle cx="90.029" cy="91.205" r="3.453" fill="#fff"/><circle cx="98.171" cy="98.112" r="2.467" fill="#fff"/><path d="M167.377 122.866c11.647 16.198 35.919 18.665 54.214 5.51 18.296-13.155 27.065-50.194 15.417-66.39-11.647-16.198-39.301-5.423-57.595 7.733-18.297 13.154-23.682 36.951-12.036 53.147z" fill="#3f1722"/><path d="M225.206 87.012s-24.916-11.349-30.343 16.033c0 0 24.423 18.008 30.343-16.033z" fill="#fff"/><defs><circle id="c" cx="207.691" cy="92.684" r="13.321"/></defs><clipPath id="d"><use xlink:href="#c" overflow="visible"/></clipPath><path d="M225.206 87.012s-24.916-11.349-30.343 16.033c0 0 24.423 18.008 30.343-16.033z" clip-path="url(#d)" fill="#19173e"/><circle cx="212.872" cy="91.205" r="3.455" fill="#fff"/><circle cx="204.732" cy="98.112" r="2.467" fill="#fff"/><path d="M151.452 138.898l-12.908-28.614s4.766-4.44 12.66-4.44c7.4 0 13.156 4.44 13.156 4.44l-12.908 28.614z" fill="#d31e25"/><path d="M198.502 25.109c-15.051-2.593-33.059-1.271-45.67-1.271l-.835-.003v-.004l-.546.001-.547-.001v.004c-.278 0-.562.003-.833.003-13.044 0-31.856-1.415-47.205 1.551 20.682 10.252 34.494 39.285 48.589 39.285 14.118.001 22.099-29.923 47.047-39.565z" fill="#ccb5a7"/></svg>