<svg xmlns="http://www.w3.org/2000/svg" xmlns:xlink="http://www.w3.org/1999/xlink" viewBox="0 0 300 300"><path d="M208.431 85.252c-2.516-31.315-26.031-62.028-58.144-62.028-.067 0-.134.005-.201.005s-.135-.005-.203-.005c-32.112 0-55.627 30.712-58.144 62.028-7.838 97.438-11.66 92.144-15.775 145.066-.159 2.006 148.401 2.006 148.243 0-4.114-52.921-7.936-47.628-15.776-145.066z" fill="#19173e"/><path d="M202.544 100.411c-2.264-28.157-23.405-55.77-52.277-55.77-.06 0-.121.007-.18.007-.061 0-.121-.007-.182-.007-28.871 0-50.012 27.613-52.276 55.77-7.047 87.6-10.483 82.843-14.185 130.422-.14 1.801 133.424 1.801 133.283 0-3.7-47.579-7.136-42.822-14.183-130.422z" fill="#e8dfce"/><path d="M88.835 185.429c-10.669 13.965-12.739 31.359-12.739 48.958 0 39.984 33.127 65.857 73.99 65.857 40.864 0 73.99-25.873 73.99-65.857 0-17.562-2.039-34.917-12.669-48.868-17.245 3.588-42.19 8.957-60.914 8.957-18.874 0-44.153-5.418-61.658-9.047z" fill="#19173e"/><path d="M110.102 34.501s-5.963-11.039 33.215-12.523c35.94-1.362 36.874 3.551 37.301 7.622.545 5.174-5.174 10.89-36.211 12.254-33.546 1.472-34.305-7.353-34.305-7.353z" fill="#4a5f71"/><path d="M118.541 30.688s21.237 10.619 51.186-2.721c0 0 .543-27.227-26.954-26.956-27.498.276-24.232 29.677-24.232 29.677z" fill="#4a5f71"/><path d="M169.727 27.967s.074-3.966-1.357-8.852c-4.149 2.821-11.662 6.209-24.236 6.675-14.645.542-22.06-1.435-25.406-2.826-.55 4.413-.187 7.725-.187 7.725s21.237 10.618 51.186-2.722z" fill="#fff"/><path d="M179.525 53.208c-8.289-6.267-18.192-10.092-29.175-10.092-.063 0-.126.005-.188.005-.063 0-.126-.005-.19-.005-11.048 0-21.007 3.868-29.325 10.207 9.014 1.955 29.189 11.378 26.197 56.734l2.951-.227 2.951.227c-3.059-46.379 18.093-55.182 26.779-56.849z" fill="#19173e"/><path d="M137.503 108.245l12.582 23.937 12.582-23.937s-6.106-4.505-12.582-4.505c-6.197 0-12.582 4.505-12.582 4.505z" fill="#d31e25"/><path d="M114.4 87.205s15.223-4.525 16.147 11.644c-.001 0-15.473 8.391-16.147-11.644z" opacity=".49" fill="#442282"/><defs><path id="a" d="M114.4 87.205s15.223-4.525 16.147 11.644c-.001 0-15.473 8.391-16.147-11.644z"/></defs><use xlink:href="#a" overflow="visible" fill="#fff"/><clipPath id="b"><use xlink:href="#a" overflow="visible"/></clipPath><path d="M116.354 90.802a7.728 7.728 0 0 1 15.306 2.133 7.725 7.725 0 0 1-8.719 6.587 7.726 7.726 0 0 1-6.587-8.72z" clip-path="url(#b)" fill="#19173e"/><path d="M123.134 90.878a1.998 1.998 0 0 0-1.708-2.258 2.002 2.002 0 0 0-2.26 1.708 2.009 2.009 0 0 0 1.707 2.262 2.006 2.006 0 0 0 2.261-1.712zM126.691 95.42a1.436 1.436 0 0 0-1.219-1.616 1.433 1.433 0 0 0-.397 2.836 1.428 1.428 0 0 0 1.616-1.22z" fill="#fff"/><g><path d="M185.772 87.205s-15.226-4.525-16.15 11.644c0 0 15.474 8.391 16.15-11.644z" opacity=".49" fill="#442282"/><defs><path id="c" d="M185.772 87.205s-15.226-4.525-16.15 11.644c0 0 15.474 8.391 16.15-11.644z"/></defs><use xlink:href="#c" overflow="visible" fill="#fff"/><clipPath id="d"><use xlink:href="#c" overflow="visible"/></clipPath><circle cx="176.164" cy="91.869" r="7.727" clip-path="url(#d)" fill="#19173e"/><path d="M177.037 90.878a1.998 1.998 0 0 1 1.706-2.258 2 2 0 0 1 2.261 1.708 2.007 2.007 0 0 1-1.706 2.262 2.006 2.006 0 0 1-2.261-1.712zM173.48 95.42a1.435 1.435 0 0 1 1.218-1.616 1.43 1.43 0 1 1-1.218 1.616z" fill="#fff"/></g><path d="M149.888 245.23l32.404-55.379c-10.586 1.472-21.476 2.448-31.799 2.448-11.42 0-23.587-1.194-35.298-2.934l34.693 55.865z" fill="#fff"/><path d="M180.378 107.218h-12.033c-1.871 0-3.506.988-4.439 2.463-1.158-2.216-2.418-6.797-3.253-9.828-2.354-8.571-4.79-17.433-10.553-17.477h-.041c-5.7 0-8.153 8.647-10.525 17.008-.774 2.729-2.158 7.59-3.438 10.043a5.246 5.246 0 0 0-4.27-2.209h-12.032a5.272 5.272 0 0 0-5.267 5.264v6.68a5.27 5.27 0 0 0 5.267 5.264h12.032a5.271 5.271 0 0 0 5.267-5.264v-5.289c2.707-1.891 4.208-7.148 6.003-13.479 1.716-6.04 4.062-14.316 6.965-14.316h.01c2.964.022 5.4 8.888 7.012 14.756 1.767 6.431 3.23 11.72 5.998 13.308v5.02a5.269 5.269 0 0 0 5.265 5.264h12.033a5.271 5.271 0 0 0 5.266-5.264v-6.68a5.274 5.274 0 0 0-5.267-5.264zm-47.642 11.944a.922.922 0 0 1-.91.908h-12.032a.923.923 0 0 1-.91-.908v-6.68c0-.488.419-.908.91-.908h12.032c.493 0 .91.42.91.908v6.68zm48.552 0a.924.924 0 0 1-.91.908h-12.033a.922.922 0 0 1-.909-.908v-6.68c0-.488.417-.908.909-.908h12.033c.492 0 .91.42.91.908v6.68zM149.122 300.228c.323.003.641.015.964.015.771 0 1.535-.024 2.302-.044l-2.503-58.696-.763 58.725z" fill="#4a5f71"/><path d="M203.727 237.593l-5.442-10.49c-2.004-3.858-4.565-3.583-5.695.615l-1.622 6.018-.474 1.765-.977 3.627-2.055 7.632 6.569-.713 6.769-.732 6.567-.71-3.64-7.012z" fill="#fff"/><path fill="#4a5f71" d="M185.93 245.616l22.853-2.475.69 6.374-22.852 2.476zM211.106 185.118c-9.427 2.006-22.107 3.915-32.819 5.262l-28.565 51.831v11.978l34.456-40.199-6.869-6.631h12.553l21.244-22.241z"/><path d="M110.308 207.359h12.55l-6.866 6.631 34.456 40.199v-11.978l-28.616-51.923c-10.725-1.369-23.43-3.287-32.87-5.291l21.346 22.362z" fill="#4a5f71"/><g fill="#d31e25"><circle cx="149.918" cy="199.737" r="5.99"/><path d="M147.205 197.361s-14.176-6.799-20.171-9.338c-5.993-2.538-7.953 1.382-8.069 5.648-.115 4.266 1.269 16.601 4.381 22.014 3.112 5.418 8.77.861 10.835-.459 4.494-2.885 13.599-13.487 13.599-13.487l-.575-4.378zM152.967 197.361s14.176-6.799 20.171-9.338c5.993-2.538 7.953 1.382 8.069 5.648.113 4.266-1.27 16.601-4.381 22.014-3.112 5.418-8.77.861-10.835-.459-4.495-2.885-13.6-13.487-13.6-13.487l.576-4.378z"/></g></svg>