<svg xmlns="http://www.w3.org/2000/svg" xmlns:xlink="http://www.w3.org/1999/xlink" viewBox="0 0 300 300"><path d="M116.436 48.845s3.992-20.308-28.284-36.625C55.879-4.096 27.961.98 27.961.98s9.79 11.242 18.854 29.734c9.064 18.493 18.491 32.273 43.875 30.46 25.383-1.815 25.746-12.329 25.746-12.329z" fill="#e37b62"/><path d="M86.34 57.546s-23.209-5.438-31.55-28.282c0 0-1.086-3.628 6.167-3.265 7.252.363 29.736 0 42.063 24.659 0 0-1.815 9.066-16.68 6.888z" fill="#ffd1ba"/><path d="M185.025 48.845s-3.989-20.308 28.281-36.625C245.582-4.096 273.5.98 273.5.98s-9.793 11.242-18.857 29.734c-9.061 18.493-18.488 32.273-43.872 30.46-25.386-1.815-25.746-12.329-25.746-12.329z" fill="#e37b62"/><path d="M215.121 57.546s23.206-5.438 31.547-28.282c0 0 1.086-3.628-6.167-3.265-7.249.363-29.733 0-42.063 24.659 0 0 1.817 9.066 16.683 6.888z" fill="#ffd1ba"/><path d="M236.319 223.147c0 46.445-38.485 76.506-85.957 76.506-47.467 0-85.952-30.062-85.952-76.506 0-46.445 38.485-91.687 85.952-91.687 47.472 0 85.957 45.242 85.957 91.687z" fill="#4a5f71"/><path d="M148.468 299.632c.374.003.743.021 1.117.021.899 0 1.783-.033 2.676-.053l-2.906-68.189-.887 68.221z" fill="#606d7e"/><path d="M106.544 164.077l44.507 97.984 43.135-100.037c-.001 0-47.473-30.811-87.642 2.053z" fill="#fff"/><path fill="#606d7e" d="M185.623 253.326h33.027v7.451h-33.027z"/><g fill="#606d7e"><path d="M98.872 133.697l-22.12 27.195c.743 16.82 4.313 31.282 9.467 43.703l32.959.899-18.154 24.997c21.476 28.479 49.341 39.186 49.341 39.186v-9.428L98.872 133.697zM201.855 133.697l22.123 27.195c-.746 16.82-4.312 31.282-9.469 43.703l-32.959.899 18.154 24.997c-21.476 28.479-49.338 39.186-49.338 39.186v-9.428l51.489-126.552z"/></g><g fill="#19173e"><circle cx="150.169" cy="197.85" r="6.958"/><path d="M151.595 193.165s39.526-20.306 43.515-9.427c3.986 10.879 18.542 51.431-44.941 14.112 0 0-1.477 1.48 1.426-4.685zM146.517 193.165s-39.523-20.306-43.515-9.427c-3.986 10.879-18.539 51.431 44.944 14.112 0 0 1.475 1.48-1.429-4.685z"/></g><path d="M232.9 75.679c-7.235-12.003-14.366-24.151-24.661-31.547-11.602-8.341-35.139-9.067-57.14-9.067-.125 0-.247.006-.369.01-.125-.004-.247-.01-.368-.01-22.001 0-45.539.726-57.143 9.067-10.295 7.396-17.425 19.544-24.661 31.547-10.796 17.924-19.376 37.167-19.376 52.988 0 28.188 23.852 42.203 52.377 51.806 15.56 5.241 29.078 12.372 48.802 12.372.122 0 .244-.003.368-.004.122.001.244.004.369.004 19.724 0 33.24-7.131 48.805-12.372 28.519-9.603 52.372-23.618 52.372-51.806.001-15.822-8.576-35.064-19.375-52.988z" fill="#ea9479"/><path d="M196.198 100.735c8.647 11.559-26.101 26.14-45.326 26.14-19.228 0-53.007-14.406-44.6-26.14 10.156-14.179 25.372-26.145 44.6-26.145 19.225 0 34.445 11.603 45.326 26.145z" fill="#e37b62"/><ellipse cx="151.235" cy="107.986" rx="48.59" ry="26.14" fill="#ffd1ba"/><path d="M135.642 105.774a4.352 4.352 0 1 0-8.704 0 4.352 4.352 0 0 0 8.704 0z" fill="#e37b62"/><path d="M109.172 152.552s-6.164-1.45-10.153 4.714c-3.992 6.165 1.026 16.244 13.416 17.042 11.242.726 29.013-10.516 34.085-37.711 0 0 .363-7.254-5.801-9.428-7.309-2.58-14.139 2.539-16.319 11.603-1.256 5.242-2.537 14.868-6.164 20.307-3.626 5.441-8.146 6.423-10.879 2.175-3.263-5.077 1.815-8.702 1.815-8.702z" fill="#5c2938"/><path d="M92.68 76.776s8.999-14.875 21.652-2.455c0 0-6.356 18.19-21.652 2.455z" opacity=".49" fill="#442282"/><defs><path id="a" d="M92.68 76.776s8.999-14.875 21.652-2.455c0 0-6.356 18.19-21.652 2.455z"/></defs><use xlink:href="#a" overflow="visible" fill="#fff"/><clipPath id="b"><use xlink:href="#a" overflow="visible"/></clipPath><path d="M96.91 78.25c-2.631-3.862-1.644-9.124 2.214-11.758a8.465 8.465 0 0 1 11.76 2.214c2.631 3.86 1.642 9.123-2.217 11.758A8.457 8.457 0 0 1 96.91 78.25z" clip-path="url(#b)" fill="#19173e"/><path d="M102.458 73.321a2.193 2.193 0 0 0-3.621 2.475 2.196 2.196 0 0 0 3.054.573 2.191 2.191 0 0 0 .567-3.048zM108.684 74.383a1.567 1.567 0 1 0-.408 2.175 1.557 1.557 0 0 0 .408-2.175z" fill="#fff"/><circle cx="170.17" cy="105.774" r="4.351" fill="#e37b62"/><path d="M192.286 152.552s6.164-1.45 10.153 4.714c3.992 6.165-1.026 16.244-13.413 17.042-11.245.726-29.013-10.516-34.087-37.711 0 0-.363-7.254 5.801-9.428 7.312-2.58 14.142 2.539 16.319 11.603 1.259 5.242 2.54 14.868 6.164 20.307 3.626 5.441 8.148 6.423 10.878 2.175 3.263-5.077-1.815-8.702-1.815-8.702z" fill="#5c2938"/><g><path d="M208.781 76.776s-9.002-14.875-21.655-2.455c0 0 6.359 18.19 21.655 2.455z" opacity=".49" fill="#442282"/><defs><path id="c" d="M208.781 76.776s-9.002-14.875-21.655-2.455c0 0 6.359 18.19 21.655 2.455z"/></defs><use xlink:href="#c" overflow="visible" fill="#fff"/><clipPath id="d"><use xlink:href="#c" overflow="visible"/></clipPath><path d="M204.548 78.25c2.631-3.862 1.644-9.124-2.214-11.758-3.862-2.634-9.124-1.643-11.758 2.214-2.634 3.86-1.644 9.123 2.214 11.758a8.458 8.458 0 0 0 11.758-2.214z" clip-path="url(#d)" fill="#19173e"/><path d="M199 73.321a2.193 2.193 0 1 1 3.621 2.476A2.193 2.193 0 0 1 199 73.321zM192.773 74.383a1.567 1.567 0 1 1 2.588 1.766 1.567 1.567 0 0 1-2.588-1.766z" fill="#fff"/></g><path d="M200.896 74.831c-10.099 0-18.956 2.177-24.034 5.455-11.953.55-13.782-17.56-26.637-17.56-11.653 0-14.61 17.39-25.735 17.489-5.092-3.239-13.898-5.384-23.926-5.384-15.772 0-28.559 5.296-28.559 11.829s12.787 11.83 28.559 11.83c15.769 0 28.556-5.296 28.556-11.83 0-.632-.153-1.246-.383-1.851 11.704-3.21 12.772-16.811 21.701-16.811 9.54 0 9.815 13.749 22.268 16.857-.218.591-.369 1.189-.369 1.806 0 6.533 12.787 11.83 28.559 11.83s28.556-5.296 28.556-11.83-12.783-11.83-28.556-11.83zM100.565 93.468c-15.767 0-23.39-5.224-23.535-6.81.147-1.583 7.777-6.806 23.535-6.806s23.387 5.223 23.535 6.808c-.145 1.584-7.769 6.808-23.535 6.808zm100.331 0c-15.766 0-23.39-5.224-23.538-6.809.028-.322.388-.798 1.043-1.348.034-.033.077-.044.105-.085 2.657-2.152 10.003-5.374 22.389-5.374 15.758 0 23.385 5.223 23.535 6.806-.146 1.586-7.767 6.81-23.534 6.81z" fill="#5c2938"/><g><path d="M107.738 41.428s-6.927-12.826 38.587-14.549c41.751-1.582 42.834 4.128 43.33 8.854.632 6.011-6.008 12.652-42.066 14.233-38.97 1.71-39.851-8.538-39.851-8.538z" fill="#19173e"/><path d="M117.545 37s24.666 12.334 59.46-3.163c0 0 .632-31.629-31.315-31.312C113.745 2.841 117.545 37 117.545 37z" fill="#19173e"/><path d="M177.004 33.837s.088-4.607-1.574-10.283c-4.823 3.282-13.552 7.211-28.156 7.753-17.017.629-25.627-1.664-29.514-3.28-.641 5.123-.215 8.974-.215 8.974s24.666 12.333 59.459-3.164z" fill="#4a5f71"/></g></svg>