<svg xmlns="http://www.w3.org/2000/svg" xmlns:xlink="http://www.w3.org/1999/xlink" viewBox="0 0 300 300"><path d="M71.02 56.581s-4.168-30.775-.322-48.724c0 0 .965-10.575 11.861-4.806 10.899 5.768 22.439 12.818 32.376 28.526L71.02 56.581z" fill="#19173e"/><path d="M83.844 45.041s-3.849-12.18-1.925-27.247c0 0 .319-7.05 20.192 15.067.001 0-9.611 10.256-18.267 12.18z" fill="#606d7e"/><path d="M236.081 56.581s4.166-30.775.319-48.724c0 0-.962-10.575-11.861-4.806-10.897 5.768-22.436 12.818-32.373 28.526l43.915 25.004z" fill="#19173e"/><path d="M223.258 45.041s3.849-12.18 1.924-27.247c0 0-.319-7.05-20.192 15.067 0 0 9.612 10.256 18.268 12.18z" fill="#606d7e"/><path d="M236.196 227.181c0 44.662-37.001 73.562-82.648 73.562-45.641 0-82.645-28.9-82.645-73.562 0-44.657 37.004-88.16 82.645-88.16 45.646 0 82.648 43.504 82.648 88.16z" fill="#e37c2f"/><path d="M152.474 300.727c.357.003.714.016 1.074.016.867 0 1.717-.027 2.574-.049l-2.797-65.563-.851 65.596z" fill="#dba187"/><path d="M205.208 159.655c-14.152-12.635-32.106-20.634-51.66-20.634-20.326 0-38.932 8.645-53.326 22.161 10.048 28.862 35.614 96.938 53.108 96.734 17.657-.208 42.176-68.843 51.878-98.261zM206.334 255.29l-6.897-11.779c-2.538-4.332-6.082-4.046-7.887.641l-2.587 6.72-.755 1.974-1.559 4.048-3.271 8.519 9.097-.741 9.373-.761 9.1-.744-4.614-7.877z" fill="#fff"/><path fill="#dba187" d="M213.545 268.687l-31.651 2.579-.583-7.143 31.647-2.576zM148.439 265.928a4.01 4.01 0 0 0-8.02 0 4.014 4.014 0 0 0 4.013 4.013 4.013 4.013 0 0 0 4.007-4.013zM148.439 285.523a4.01 4.01 0 0 0-8.02 0 4.01 4.01 0 0 0 8.02 0z"/><path d="M223.43 181.914c-2.11 10.953-2.372 24.252-.305 38.332 1.731 11.802 4.863 22.608 8.879 31.618 2.707-7.538 4.193-15.792 4.193-24.682-.001-15.875-4.695-31.588-12.767-45.268zM74.9 251.327c3.901-8.903 6.952-19.513 8.65-31.081 2.028-13.849 1.813-26.942-.199-37.789-7.884 13.552-12.448 29.063-12.448 44.725 0 8.68 1.412 16.754 3.997 24.145z" fill="#e8dfce"/><g fill="#e8dfce"><path d="M153.995 157.254c-1.949-3.064-26.373-3.691-44.398-3.727a88.766 88.766 0 0 0-9.375 7.655c3.435 9.863 8.68 24.303 14.797 39.033 13.647 18.186 22.496 17.614 22.496 17.614 20.045-25.833 19.148-51.668 19.148-51.668s.451-4.008-2.668-8.907z"/><path d="M197.504 153.527c-18.025.035-42.451.662-44.403 3.727-3.118 4.899-2.669 8.906-2.669 8.906s-.894 25.835 19.148 51.668c0 0 7.529.461 19.402-13.712 6.747-16.545 12.551-33.318 16.226-44.46a87.674 87.674 0 0 0-7.704-6.129z"/></g><path d="M256.383 101.126c-1.336-15.141-2.23-20.931-7.57-31.623-14.811-29.625-48.103-53.446-94.307-54.337-.322-.008-.635.005-.954.005-.316 0-.63-.013-.951-.005-46.209.891-79.501 24.712-94.309 54.337-5.343 10.692-6.237 16.482-7.573 31.623-1.32 14.958-.701 40.957 12.025 47.655 25.388 13.361 52.641 24.584 89.856 24.584.322 0 .635-.014.951-.016.319.003.632.016.954.016 37.211 0 64.464-11.223 89.853-24.584 12.726-6.698 13.344-32.697 12.025-47.655z" fill="#c2cbd4"/><path d="M103.077 80.612c-24.459-7.57-41.262-.442-50.725 6.352-.668 3.877-1.118 8.317-1.633 14.162-1.32 14.958-.701 40.957 12.025 47.655 20.637 10.861 42.503 20.307 69.947 23.461 4.097-16.335 12.055-48.359 12.055-48.359s-1.282-30.772-41.669-43.271z" fill="#606d7e"/><path d="M108.524 82.855c-22.114-8.658-43.272 28.207-50.002 43.912-2.726 6.366-2.173 12.66-.57 17.916 1.371 1.701 2.939 3.121 4.792 4.097 11.779 6.199 23.963 11.932 37.351 16.3 21.492-27.98 29.101-74.134 8.429-82.225z" fill="#19173e"/><path d="M85.357 95.523s21.275-7.802 24.033 15.141c0 0-21.288 13.334-24.033-15.141z" opacity=".49" fill="#442282"/><defs><path id="a" d="M85.357 95.523s21.275-7.802 24.033 15.141c0 0-21.288 13.334-24.033-15.141z"/></defs><use xlink:href="#a" overflow="visible" fill="#fff"/><clipPath id="b"><use xlink:href="#a" overflow="visible"/></clipPath><path d="M88.457 100.471c.472-6.074 5.763-10.624 11.837-10.16 6.071.463 10.621 5.763 10.158 11.834-.463 6.071-5.76 10.621-11.834 10.158-6.075-.464-10.622-5.758-10.161-11.832z" clip-path="url(#b)" fill="#3f1722"/><path d="M98.121 99.975a2.861 2.861 0 0 0-2.631-3.067 2.867 2.867 0 0 0-3.072 2.634 2.864 2.864 0 0 0 2.639 3.072 2.862 2.862 0 0 0 3.064-2.639zM103.595 106.128a2.047 2.047 0 0 0-1.884-2.192 2.043 2.043 0 1 0-.305 4.073 2.043 2.043 0 0 0 2.189-1.881z" fill="#fff"/><path d="M204.025 80.612c24.459-7.57 41.265-.442 50.725 6.352.665 3.877 1.115 8.317 1.633 14.162 1.319 14.958.701 40.957-12.025 47.655-20.634 10.861-42.503 20.307-69.947 23.461-4.097-16.335-12.055-48.359-12.055-48.359s1.284-30.772 41.669-43.271z" fill="#606d7e"/><path d="M198.578 82.855c22.114-8.658 43.271 28.207 50.002 43.912 2.729 6.366 2.173 12.66.57 17.916-1.371 1.701-2.939 3.121-4.793 4.097-11.777 6.199-23.963 11.932-37.351 16.3-21.489-27.98-29.1-74.134-8.428-82.225z" fill="#19173e"/><g><path d="M221.748 95.523s-21.277-7.802-24.039 15.141c0 0 21.291 13.334 24.039-15.141z" opacity=".49" fill="#442282"/><defs><path id="c" d="M221.748 95.523s-21.277-7.802-24.039 15.141c0 0 21.291 13.334 24.039-15.141z"/></defs><use xlink:href="#c" overflow="visible" fill="#fff"/><clipPath id="d"><use xlink:href="#c" overflow="visible"/></clipPath><path d="M218.645 100.471c-.469-6.074-5.763-10.624-11.834-10.16-6.074.463-10.621 5.763-10.16 11.834.461 6.071 5.76 10.621 11.831 10.158 6.077-.464 10.621-5.758 10.163-11.832z" clip-path="url(#d)" fill="#3f1722"/><path d="M208.981 99.975a2.86 2.86 0 0 1 2.634-3.067 2.865 2.865 0 0 1 3.067 2.634 2.862 2.862 0 0 1-2.636 3.072 2.862 2.862 0 0 1-3.065-2.639zM203.507 106.128a2.045 2.045 0 0 1 1.884-2.192 2.04 2.04 0 0 1 2.189 1.881 2.043 2.043 0 0 1-4.073.311z" fill="#fff"/></g><path d="M194.664 154.618c0 22.373-18.832 27.122-42.064 27.122-23.229 0-42.061-4.749-42.061-27.122 0-22.371 18.832-53.901 42.061-53.901 23.231 0 42.064 31.53 42.064 53.901z" fill="#fff"/><path d="M144.249 157.693s-9.353-4.01-15.588 3.116c-6.235 7.126-2.227 16.924.889 24.053 3.119 7.123-3.563 16.477-7.57 8.906 0 0 .891 9.798 11.58 5.787 10.689-4.007 4.899-26.721 4.899-26.721s16.033-1.334 5.79-15.141zM162.852 157.693s9.353-4.01 15.588 3.116c6.235 7.126 2.227 16.924-.891 24.053-3.116 7.123 3.566 16.477 7.573 8.906 0 0-.891 9.798-11.58 5.787-10.689-4.007-4.899-26.721-4.899-26.721s-16.032-1.334-5.791-15.141z" fill="#3f1722"/><path d="M175.335 151.782c0-7.096-11.256-8.563-21.853-8.563-10.599 0-21.855 1.466-21.855 8.563s11.256 20.053 21.855 20.053c10.597.001 21.853-12.957 21.853-20.053z" fill="#19173e"/></svg>