<svg xmlns="http://www.w3.org/2000/svg" xmlns:xlink="http://www.w3.org/1999/xlink" viewBox="0 0 300 300"><path d="M218.2 192.978s10.817 4.851 17.533-2.239c6.714-7.09 3.357-17.158 3.357-17.158s11.867-2.774 17.906-20.894c7.834-23.5-6.34-36.184-6.34-36.184s12.238-9.578 10.817-29.101c-1.492-20.516-20.891-29.096-20.891-29.096s9.439-14.78-2.985-30.59c-12.312-15.668-36.185-5.969-36.185-5.969S197.681 4.589 178.281 1.6c-24.068-3.702-30.962 10.448-30.962 10.448S138.286-.951 115.982 1.976C93.229 4.958 89.498 24.731 89.498 24.731s-9.328-6.714-18.655.745c-9.327 7.461-5.967 18.281-5.967 18.281s-14.923 1.49-20.893 17.158c-5.528 14.514 4.851 27.237 4.851 27.237s-15.295 14.547-5.97 42.524c6.685 20.052 26.114 24.995 26.114 24.995s-9.697 12.312.375 26.49c6.486 9.127 17.533 9.322 17.533 9.322s1.118 17.16 18.652 23.132c17.904 6.097 30.217-5.972 30.217-5.972s12.311 13.433 34.323 10.075c21.136-3.225 24.246-19.771 24.246-19.771s5.97 9.696 16.043 5.969c8.966-3.32 7.833-11.938 7.833-11.938z" fill="#c2cbd4"/><path d="M226.754 231.958c0 41.089-34.042 67.679-76.035 67.679-41.992 0-76.034-26.59-76.034-67.679 0-41.084 34.042-81.105 76.034-81.105 41.993 0 76.035 40.021 76.035 81.105z" fill="#606d7e"/><path d="M111.957 179.71l39.369 91.421 38.157-93.241s-41.994-27.255-77.526 1.82z" fill="#e8dfce"/><path d="M150.719 299.637c.932 0 1.853-.027 2.776-.055l-2.169-86.279-3.356 86.279c.913.028 1.826.055 2.749.055z" fill="#4a5f71"/><path d="M207.189 241.822h-.001l-5.443-11.319c-2.001-4.161-5.277-4.163-7.28 0l-2.87 5.972-.842 1.748-1.732 3.599h-.001l-3.638 7.567h25.446l-3.639-7.567z" fill="#e8dfce"/><path fill="#4a5f71" d="M183.586 248.054h29.217v6.589h-29.217z"/><path d="M158.772 237.089c0 12.292-3.605 20.247-8.053 20.247-4.446 0-8.051-7.956-8.051-20.247 0-12.297 3.605-24.27 8.051-24.27 4.448 0 8.053 11.973 8.053 24.27z" fill="#e37c2f"/><path d="M159.821 210.359c0 7.017-4.074 11.56-9.102 11.56-5.028 0-9.102-4.542-9.102-11.56 0-7.013 4.074-13.849 9.102-13.849 5.027-.001 9.102 6.836 9.102 13.849z" fill="#e37c2f"/><path fill="#fff" d="M151.434 206.193l-16.307 21.15-21.405-31.084 21.405-4.334z"/><path fill="#fff" d="M150.416 206.193l16.307 21.15 21.405-31.084-21.405-4.334z"/><path fill="#4a5f71" d="M150.925 254.611l-43.828-89.186-28.796 9.174 30.456 42.745 20.254 5.414-11.505 6.865 33.419 46.905z"/><path fill="#4a5f71" d="M150.416 254.611l43.827-89.186 28.797 9.174-30.458 42.745-20.252 5.414 11.504 6.865-33.418 46.905z"/><g fill="#e37b62"><path d="M219.141 55.911s22.437 19.069 59.453 22.808c0 0 11.853.845 13.087 5.608 2.616 10.097-40.009 40.382-74.035 7.853 0 0-8.975-40.756 1.495-36.269zM82.297 55.911S59.861 74.98 22.845 78.719c0 0-11.853.845-13.087 5.608-2.617 10.097 40.008 40.382 74.034 7.853 0 0 8.974-40.756-1.495-36.269z"/></g><path d="M233.469 93.715c0-48.204-37.049-61.495-82.75-61.495-45.702 0-82.748 13.29-82.748 61.495 0 37.335 45.735 113.065 82.748 113.065 38.345 0 82.75-78.713 82.75-113.065z" fill="#e8dfce"/><g><ellipse transform="rotate(-15.762 135.375 177.021)" cx="135.386" cy="177.051" rx="19.069" ry="15.327" fill="#f5f4ef"/><path d="M75.559 164.713s21.686 30.658 63.564-3.366c0 0 11.965-1.497 10.096 11.963-1.87 13.461-74.032 30.663-73.66-8.597z" fill="#3f1722"/><ellipse transform="rotate(-164.238 166.054 177.047)" cx="166.053" cy="177.051" rx="19.068" ry="15.328" fill="#f5f4ef"/><path d="M225.879 164.713s-21.687 30.658-63.564-3.366c0 0-11.963-1.497-10.095 11.963 1.869 13.461 74.032 30.663 73.659-8.597z" fill="#3f1722"/></g><path d="M170.866 162.375c0-7.717-9.02-9.847-20.147-9.847-11.126 0-20.146 2.129-20.146 9.847 0 5.979 11.135 18.103 20.146 18.103 9.335 0 20.147-12.6 20.147-18.103z" fill="#e37b62"/><g><path d="M93.526 84.992s20.912-6.747 22.713 15.585c0 0-21.137 12.109-22.713-15.585z" opacity=".49" fill="#442282"/><defs><path id="a" d="M93.526 84.992s20.912-6.747 22.713 15.585c0 0-21.137 12.109-22.713-15.585z"/></defs><use xlink:href="#a" overflow="visible" fill="#fff"/><clipPath id="b"><use xlink:href="#a" overflow="visible"/></clipPath><path d="M96.346 89.905c.682-5.866 5.987-10.072 11.848-9.393 5.867.677 10.073 5.984 9.393 11.851-.677 5.869-5.984 10.072-11.851 9.393-5.866-.685-10.07-5.979-9.39-11.851z" clip-path="url(#b)" fill="#19173e"/><path d="M105.726 89.792a2.765 2.765 0 0 0-2.435-3.067 2.768 2.768 0 0 0-3.072 2.438 2.77 2.77 0 1 0 5.507.629zM110.792 95.962a1.98 1.98 0 1 0-2.195 1.739 1.976 1.976 0 0 0 2.195-1.739z" fill="#fff"/><g><path d="M207.914 84.992s-20.912-6.747-22.714 15.585c-.001 0 21.136 12.109 22.714-15.585z" opacity=".49" fill="#442282"/><defs><path id="c" d="M207.914 84.992s-20.912-6.747-22.714 15.585c-.001 0 21.136 12.109 22.714-15.585z"/></defs><use xlink:href="#c" overflow="visible" fill="#fff"/><clipPath id="d"><use xlink:href="#c" overflow="visible"/></clipPath><path d="M205.093 89.905c-.682-5.866-5.987-10.072-11.85-9.393-5.866.677-10.071 5.984-9.392 11.851.677 5.869 5.984 10.072 11.849 9.393 5.868-.685 10.072-5.979 9.393-11.851z" clip-path="url(#d)" fill="#19173e"/><path d="M195.713 89.792a2.764 2.764 0 0 1 2.435-3.067 2.768 2.768 0 0 1 3.071 2.438 2.77 2.77 0 1 1-5.506.629zM190.646 95.962a1.98 1.98 0 1 1 3.933-.453 1.98 1.98 0 0 1-3.933.453z" fill="#fff"/></g></g><g><path d="M217.766 106.283h-5.009c-.321 0-.626.055-.922.133-.224-.524-.438-1.066-.699-1.52-.706-1.846-3.258-5.285-12.446-5.927a171.68 171.68 0 0 0-11.481-.404c-14.538 0-20.866 2.132-23.807 3.938-2.269-3.168-6.284-6.381-12.417-6.381-6.476 0-10.219 3.93-12.138 6.937-2.522-1.894-8.554-4.494-24.621-4.494-4.947 0-9.316.253-11.481.404-9.188.642-11.74 4.081-12.446 5.927-.261.454-.474.996-.7 1.52a3.573 3.573 0 0 0-.919-.133h-5.01a3.653 3.653 0 1 0 0 7.306h4.195c-.479 5.179.322 11.055 2.95 15.76 3.205 5.736 8.689 8.894 15.438 8.894 2.641 0 5.521-.472 8.564-1.407 21.035-6.458 26.186-17.035 27.424-21.283.919-3.153.765-6.205-.389-8.728.967-1.994 3.659-6.225 9.133-6.225 5.143 0 7.884 3.017 9.184 5.144-1.664 2.696-2.031 6.185-.974 9.809 1.238 4.249 6.389 14.825 27.424 21.283 3.041.935 5.923 1.407 8.562 1.407 6.751 0 12.234-3.158 15.438-8.894 2.628-4.705 3.431-10.581 2.951-15.76h4.195a3.65 3.65 0 0 0 3.653-3.652 3.651 3.651 0 0 0-3.652-3.654zm-81.97 7.391c-1.501 5.149-8.319 12.252-22.951 16.746-7.752 2.378-13.192.973-16.168-4.349-3.351-5.994-2.498-14.682-.44-18.028l.326-.529.02-.113c.534-.479 2.406-1.437 6.629-1.733 2.078-.145 6.27-.386 11.015-.386 17.119 0 20.541 2.997 21.052 3.596.907 1.066 1.094 2.812.517 4.796zm68.965 12.397c-2.976 5.322-8.416 6.726-16.168 4.349-14.633-4.494-21.449-11.597-22.95-16.746-.578-1.984-.39-3.729.515-4.795.513-.599 3.934-3.596 21.052-3.596 4.744 0 8.937.241 11.015.386 4.221.296 6.093 1.254 6.628 1.733l.023.113.325.529c2.058 3.345 2.911 12.033-.44 18.027z" fill="#3f1722"/></g></svg>